# xmcd
#
# Track frame offsets: 
#        150
#        80269
#        107573
#        131009
#        147044
#        187762
#        189200
#        220510
#
# Disc length: 3183 seconds
#
# Revision: 0
# Processed by: cddbd v1.4PL0 Copyright (c) Steve Scherf et al.
# Submitted via: ExactAudioCopy v0.90b4
#
DISCID=5c0c6d08
DTITLE=Die Original Moldawische Gnuhirten Ohne Festen Wohnsitz Psyched
DTITLE=elic Blues Band - Wüstenmusik
DYEAR=1998
DGENRE=Psychedelic Blues
TTITLE0=Wüstenmusik
TTITLE1=Kama Sumatra Masala
TTITLE2=Blue Albatros
TTITLE3=Attack Of The Mutant Zombie Scotsmen
TTITLE4=Cosmic Fuckaround
TTITLE5=Regenwald Song
TTITLE6=Serengeti Darf Nicht Sterben
TTITLE7=Weidenmusik
EXTD=
EXTT0=
EXTT1=
EXTT2=
EXTT3=
EXTT4=
EXTT5=
EXTT6=
EXTT7=
PLAYORDER=
